<svg width="82" height="89" viewBox="0 0 82 89" fill="none" xmlns="http://www.w3.org/2000/svg">
<path d="M0.742731 24.3102C0.33227 24.3102 0 23.9297 0 23.4596V8.62147C0 3.86943 3.37582 0 7.52789 0H20.4839C20.8944 0 21.2267 0.380548 21.2267 0.850635C21.2267 1.32072 20.8944 1.70127 20.4839 1.70127H7.52789C4.19674 1.70127 1.48548 4.8064 1.48548 8.62147V23.4596C1.48548 23.9329 1.15319 24.3102 0.742731 24.3102Z" fill="#1B8DE4"/>
<path d="M81.2574 24.3102C80.8469 24.3102 80.5146 23.9297 80.5146 23.4596V8.62147C80.5146 4.8064 77.8034 1.70127 74.4722 1.70127H61.5162C61.1057 1.70127 60.7734 1.32072 60.7734 0.850635C60.7734 0.380548 61.1057 0 61.5162 0H74.4722C78.6215 0 82.0001 3.86623 82.0001 8.62147V23.4596C82.0001 23.9329 81.6679 24.3102 81.2574 24.3102Z" fill="#1B8DE4"/>
<path d="M20.4839 89H7.52789C3.37861 89 0 85.1338 0 80.3785V65.5404C0 65.0703 0.33227 64.6898 0.742731 64.6898C1.15319 64.6898 1.48548 65.0703 1.48548 65.5404V80.3785C1.48548 84.1936 4.19674 87.2987 7.52789 87.2987H20.4839C20.8944 87.2987 21.2267 87.6793 21.2267 88.1494C21.2239 88.6194 20.8916 89 20.4839 89Z" fill="#1B8DE4"/>
<path d="M74.4722 89H61.5162C61.1057 89 60.7734 88.6194 60.7734 88.1494C60.7734 87.6793 61.1057 87.2987 61.5162 87.2987H74.4722C77.8034 87.2987 80.5146 84.1936 80.5146 80.3785V65.5404C80.5146 65.0703 80.8469 64.6898 81.2574 64.6898C81.6679 64.6898 82.0001 65.0703 82.0001 65.5404V80.3785C82.0001 85.1338 78.6215 89 74.4722 89Z" fill="#1B8DE4"/>
<path opacity="0.39" d="M67.4861 78.2659H12.9541C10.2189 78.2659 8 75.436 8 71.9476V17.3182C8 13.8299 10.2189 11 12.9541 11H67.4861C70.2213 11 72.4402 13.8299 72.4402 17.3182V71.9476C72.4402 75.4393 70.2213 78.2659 67.4861 78.2659Z" fill="#CEE4F6"/>
<path d="M15.3137 17H13V19.3137H15.3137V17Z" fill="black"/>
<path d="M17.6276 17H15.3138V19.3137H17.6276V17Z" fill="black"/>
<path d="M19.9456 17H17.6318V19.3137H19.9456V17Z" fill="black"/>
<path d="M22.2594 17H19.9457V19.3137H22.2594V17Z" fill="black"/>
<path d="M24.5733 17H22.2595V19.3137H24.5733V17Z" fill="black"/>
<path d="M26.8912 17H24.5775V19.3137H26.8912V17Z" fill="black"/>
<path d="M29.2051 17H26.8914V19.3137H29.2051V17Z" fill="black"/>
<path d="M33.8369 17H31.5232V19.3137H33.8369V17Z" fill="black"/>
<path d="M36.1553 17H33.8416V19.3137H36.1553V17Z" fill="black"/>
<path d="M38.4691 17H36.1554V19.3137H38.4691V17Z" fill="black"/>
<path d="M43.101 17H40.7872V19.3137H43.101V17Z" fill="black"/>
<path d="M45.419 17H43.1052V19.3137H45.419V17Z" fill="black"/>
<path d="M50.0512 17H47.7374V19.3137H50.0512V17Z" fill="black"/>
<path d="M54.683 17H52.3693V19.3137H54.683V17Z" fill="black"/>
<path d="M56.9965 17H54.6827V19.3137H56.9965V17Z" fill="black"/>
<path d="M59.3148 17H57.0011V19.3137H59.3148V17Z" fill="black"/>
<path d="M61.6283 17H59.3146V19.3137H61.6283V17Z" fill="black"/>
<path d="M63.9422 17H61.6284V19.3137H63.9422V17Z" fill="black"/>
<path d="M66.2605 17H63.9468V19.3137H66.2605V17Z" fill="black"/>
<path d="M68.574 17H66.2603V19.3137H68.574V17Z" fill="black"/>
<path d="M15.3137 19.3137H13V21.6275H15.3137V19.3137Z" fill="black"/>
<path d="M29.2051 19.3137H26.8914V21.6275H29.2051V19.3137Z" fill="black"/>
<path d="M40.7871 19.3137H38.4734V21.6275H40.7871V19.3137Z" fill="black"/>
<path d="M45.419 19.3137H43.1052V21.6275H45.419V19.3137Z" fill="black"/>
<path d="M47.7328 19.3137H45.4191V21.6275H47.7328V19.3137Z" fill="black"/>
<path d="M54.683 19.3137H52.3693V21.6275H54.683V19.3137Z" fill="black"/>
<path d="M68.574 19.3137H66.2603V21.6275H68.574V19.3137Z" fill="black"/>
<path d="M15.3137 21.6274H13V23.9412H15.3137V21.6274Z" fill="black"/>
<path d="M19.9456 21.6274H17.6318V23.9412H19.9456V21.6274Z" fill="black"/>
<path d="M22.2594 21.6274H19.9457V23.9412H22.2594V21.6274Z" fill="black"/>
<path d="M24.5733 21.6274H22.2595V23.9412H24.5733V21.6274Z" fill="black"/>
<path d="M29.2051 21.6274H26.8914V23.9412H29.2051V21.6274Z" fill="black"/>
<path d="M33.8369 21.6274H31.5232V23.9412H33.8369V21.6274Z" fill="black"/>
<path d="M36.1553 21.6274H33.8416V23.9412H36.1553V21.6274Z" fill="black"/>
<path d="M38.4691 23.9412H36.1554V26.2549H38.4691V23.9412Z" fill="black"/>
<path d="M43.101 21.6274H40.7872V23.9412H43.101V21.6274Z" fill="black"/>
<path d="M54.683 21.6274H52.3693V23.9412H54.683V21.6274Z" fill="black"/>
<path d="M59.3148 21.6274H57.0011V23.9412H59.3148V21.6274Z" fill="black"/>
<path d="M61.6283 21.6274H59.3146V23.9412H61.6283V21.6274Z" fill="black"/>
<path d="M63.9422 21.6274H61.6284V23.9412H63.9422V21.6274Z" fill="black"/>
<path d="M68.574 21.6274H66.2603V23.9412H68.574V21.6274Z" fill="black"/>
<path d="M15.3137 23.9412H13V26.2549H15.3137V23.9412Z" fill="black"/>
<path d="M19.9456 23.9412H17.6318V26.2549H19.9456V23.9412Z" fill="black"/>
<path d="M22.2594 23.9412H19.9457V26.2549H22.2594V23.9412Z" fill="black"/>
<path d="M24.5733 23.9412H22.2595V26.2549H24.5733V23.9412Z" fill="black"/>
<path d="M29.2051 23.9412H26.8914V26.2549H29.2051V23.9412Z" fill="black"/>
<path d="M43.101 23.9412H40.7872V26.2549H43.101V23.9412Z" fill="black"/>
<path d="M47.7328 23.9412H45.4191V26.2549H47.7328V23.9412Z" fill="black"/>
<path d="M50.0512 23.9412H47.7374V26.2549H50.0512V23.9412Z" fill="black"/>
<path d="M54.683 23.9412H52.3693V26.2549H54.683V23.9412Z" fill="black"/>
<path d="M59.3148 23.9412H57.0011V26.2549H59.3148V23.9412Z" fill="black"/>
<path d="M61.6283 23.9412H59.3146V26.2549H61.6283V23.9412Z" fill="black"/>
<path d="M63.9422 23.9412H61.6284V26.2549H63.9422V23.9412Z" fill="black"/>
<path d="M68.574 23.9412H66.2603V26.2549H68.574V23.9412Z" fill="black"/>
<path d="M15.3137 26.2505H13V28.5642H15.3137V26.2505Z" fill="black"/>
<path d="M19.9456 26.2505H17.6318V28.5642H19.9456V26.2505Z" fill="black"/>
<path d="M22.2594 26.2505H19.9457V28.5642H22.2594V26.2505Z" fill="black"/>
<path d="M24.5733 26.2505H22.2595V28.5642H24.5733V26.2505Z" fill="black"/>
<path d="M29.2051 26.2505H26.8914V28.5642H29.2051V26.2505Z" fill="black"/>
<path d="M38.4691 26.2505H36.1554V28.5642H38.4691V26.2505Z" fill="black"/>
<path d="M40.7871 26.2505H38.4734V28.5642H40.7871V26.2505Z" fill="black"/>
<path d="M43.101 26.2505H40.7872V28.5642H43.101V26.2505Z" fill="black"/>
<path d="M45.419 26.2505H43.1052V28.5642H45.419V26.2505Z" fill="black"/>
<path d="M50.0512 26.2505H47.7374V28.5642H50.0512V26.2505Z" fill="black"/>
<path d="M54.683 26.2505H52.3693V28.5642H54.683V26.2505Z" fill="black"/>
<path d="M59.3148 26.2505H57.0011V28.5642H59.3148V26.2505Z" fill="black"/>
<path d="M61.6283 26.2505H59.3146V28.5642H61.6283V26.2505Z" fill="black"/>
<path d="M63.9422 26.2505H61.6284V28.5642H63.9422V26.2505Z" fill="black"/>
<path d="M68.574 26.2505H66.2603V28.5642H68.574V26.2505Z" fill="black"/>
<path d="M15.3137 28.5641H13V30.8779H15.3137V28.5641Z" fill="black"/>
<path d="M29.2051 28.5641H26.8914V30.8779H29.2051V28.5641Z" fill="black"/>
<path d="M33.8369 28.5641H31.5232V30.8779H33.8369V28.5641Z" fill="black"/>
<path d="M38.4691 28.5641H36.1554V30.8779H38.4691V28.5641Z" fill="black"/>
<path d="M40.7871 28.5641H38.4734V30.8779H40.7871V28.5641Z" fill="black"/>
<path d="M50.0512 28.5641H47.7374V30.8779H50.0512V28.5641Z" fill="black"/>
<path d="M54.683 28.5641H52.3693V30.8779H54.683V28.5641Z" fill="black"/>
<path d="M68.574 28.5641H66.2603V30.8779H68.574V28.5641Z" fill="black"/>
<path d="M15.3137 30.8779H13V33.1916H15.3137V30.8779Z" fill="black"/>
<path d="M17.6276 30.8779H15.3138V33.1916H17.6276V30.8779Z" fill="black"/>
<path d="M19.9456 30.8779H17.6318V33.1916H19.9456V30.8779Z" fill="black"/>
<path d="M22.2594 30.8779H19.9457V33.1916H22.2594V30.8779Z" fill="black"/>
<path d="M24.5733 30.8779H22.2595V33.1916H24.5733V30.8779Z" fill="black"/>
<path d="M26.8912 30.8779H24.5775V33.1916H26.8912V30.8779Z" fill="black"/>
<path d="M29.2051 30.8779H26.8914V33.1916H29.2051V30.8779Z" fill="black"/>
<path d="M33.8369 30.8779H31.5232V33.1916H33.8369V30.8779Z" fill="black"/>
<path d="M33.8369 33.1876H31.5232V35.5013H33.8369V33.1876Z" fill="black"/>
<path d="M38.4691 30.8779H36.1554V33.1916H38.4691V30.8779Z" fill="black"/>
<path d="M45.419 30.8779H43.1052V33.1916H45.419V30.8779Z" fill="black"/>
<path d="M47.7328 30.8779H45.4191V33.1916H47.7328V30.8779Z" fill="black"/>
<path d="M50.0512 30.8779H47.7374V33.1916H50.0512V30.8779Z" fill="black"/>
<path d="M54.683 30.8779H52.3693V33.1916H54.683V30.8779Z" fill="black"/>
<path d="M56.9965 30.8779H54.6827V33.1916H56.9965V30.8779Z" fill="black"/>
<path d="M59.3148 30.8779H57.0011V33.1916H59.3148V30.8779Z" fill="black"/>
<path d="M61.6283 30.8779H59.3146V33.1916H61.6283V30.8779Z" fill="black"/>
<path d="M63.9422 30.8779H61.6284V33.1916H63.9422V30.8779Z" fill="black"/>
<path d="M66.2605 30.8779H63.9468V33.1916H66.2605V30.8779Z" fill="black"/>
<path d="M68.574 30.8779H66.2603V33.1916H68.574V30.8779Z" fill="black"/>
<path d="M36.1553 33.1876H33.8416V35.5013H36.1553V33.1876Z" fill="black"/>
<path d="M36.1553 26.2505H33.8416V28.5642H36.1553V26.2505Z" fill="black"/>
<path d="M40.7871 33.1876H38.4734V35.5013H40.7871V33.1876Z" fill="black"/>
<path d="M45.419 33.1876H43.1052V35.5013H45.419V33.1876Z" fill="black"/>
<path d="M50.0512 33.1876H47.7374V35.5013H50.0512V33.1876Z" fill="black"/>
<path d="M15.3137 35.5009H13V37.8147H15.3137V35.5009Z" fill="black"/>
<path d="M17.6276 37.8146H15.3138V40.1284H17.6276V37.8146Z" fill="black"/>
<path d="M19.9456 35.5009H17.6318V37.8147H19.9456V35.5009Z" fill="black"/>
<path d="M22.2594 35.5009H19.9457V37.8147H22.2594V35.5009Z" fill="black"/>
<path d="M29.2051 35.5009H26.8914V37.8147H29.2051V35.5009Z" fill="black"/>
<path d="M31.5231 35.5009H29.2094V37.8147H31.5231V35.5009Z" fill="black"/>
<path d="M38.4691 35.5009H36.1554V37.8147H38.4691V35.5009Z" fill="black"/>
<path d="M43.101 35.5009H40.7872V37.8147H43.101V35.5009Z" fill="black"/>
<path d="M45.419 35.5009H43.1052V37.8147H45.419V35.5009Z" fill="black"/>
<path d="M47.7328 35.5009H45.4191V37.8147H47.7328V35.5009Z" fill="black"/>
<path d="M50.0512 35.5009H47.7374V37.8147H50.0512V35.5009Z" fill="black"/>
<path d="M56.9965 35.5009H54.6827V37.8147H56.9965V35.5009Z" fill="black"/>
<path d="M52.3646 35.5009H50.0509V37.8147H52.3646V35.5009Z" fill="black"/>
<path d="M63.9422 35.5009H61.6284V37.8147H63.9422V35.5009Z" fill="black"/>
<path d="M61.6283 35.5009H59.3146V37.8147H61.6283V35.5009Z" fill="black"/>
<path d="M59.3148 35.5009H57.0011V37.8147H59.3148V35.5009Z" fill="black"/>
<path d="M68.574 35.5009H66.2603V37.8147H68.574V35.5009Z" fill="black"/>
<path d="M33.8369 37.8146H31.5232V40.1284H33.8369V37.8146Z" fill="black"/>
<path d="M31.5231 37.8146H29.2094V40.1284H31.5231V37.8146Z" fill="black"/>
<path d="M38.4691 37.8146H36.1554V40.1284H38.4691V37.8146Z" fill="black"/>
<path d="M40.7871 37.8146H38.4734V40.1284H40.7871V37.8146Z" fill="black"/>
<path d="M24.5733 37.8146H22.2595V40.1284H24.5733V37.8146Z" fill="black"/>
<path d="M22.2594 37.8146H19.9457V40.1284H22.2594V37.8146Z" fill="black"/>
<path d="M26.8912 37.8146H24.5775V40.1284H26.8912V37.8146Z" fill="black"/>
<path d="M47.7328 37.8146H45.4191V40.1284H47.7328V37.8146Z" fill="black"/>
<path d="M52.3646 37.8146H50.0509V40.1284H52.3646V37.8146Z" fill="black"/>
<path d="M54.683 37.8146H52.3693V40.1284H54.683V37.8146Z" fill="black"/>
<path d="M56.9965 37.8146H54.6827V40.1284H56.9965V37.8146Z" fill="black"/>
<path d="M61.6283 37.8146H59.3146V40.1284H61.6283V37.8146Z" fill="black"/>
<path d="M66.2605 37.8146H63.9468V40.1284H66.2605V37.8146Z" fill="black"/>
<path d="M68.574 37.8146H66.2603V40.1284H68.574V37.8146Z" fill="black"/>
<path d="M15.3137 40.1284H13V42.4421H15.3137V40.1284Z" fill="black"/>
<path d="M19.9456 40.1284H17.6318V42.4421H19.9456V40.1284Z" fill="black"/>
<path d="M26.8912 40.1284H24.5775V42.4421H26.8912V40.1284Z" fill="black"/>
<path d="M26.8912 42.4377H24.5775V44.7514H26.8912V42.4377Z" fill="black"/>
<path d="M29.2051 40.1284H26.8914V42.4421H29.2051V40.1284Z" fill="black"/>
<path d="M31.5231 40.1284H29.2094V42.4421H31.5231V40.1284Z" fill="black"/>
<path d="M36.1553 40.1284H33.8416V42.4421H36.1553V40.1284Z" fill="black"/>
<path d="M36.1553 42.4377H33.8416V44.7514H36.1553V42.4377Z" fill="black"/>
<path d="M43.101 40.1284H40.7872V42.4421H43.101V40.1284Z" fill="black"/>
<path d="M47.7328 40.1284H45.4191V42.4421H47.7328V40.1284Z" fill="black"/>
<path d="M52.3646 40.1284H50.0509V42.4421H52.3646V40.1284Z" fill="black"/>
<path d="M54.683 40.1284H52.3693V42.4421H54.683V40.1284Z" fill="black"/>
<path d="M61.6283 40.1284H59.3146V42.4421H61.6283V40.1284Z" fill="black"/>
<path d="M63.9422 40.1284H61.6284V42.4421H63.9422V40.1284Z" fill="black"/>
<path d="M68.574 40.1284H66.2603V42.4421H68.574V40.1284Z" fill="black"/>
<path d="M17.6276 42.4377H15.3138V44.7514H17.6276V42.4377Z" fill="black"/>
<path d="M17.6276 44.7517H15.3138V47.0654H17.6276V44.7517Z" fill="black"/>
<path d="M17.6276 47.0651H15.3138V49.3788H17.6276V47.0651Z" fill="black"/>
<path d="M19.9456 47.0651H17.6318V49.3788H19.9456V47.0651Z" fill="black"/>
<path d="M22.2594 42.4377H19.9457V44.7514H22.2594V42.4377Z" fill="black"/>
<path d="M31.5231 42.4377H29.2094V44.7514H31.5231V42.4377Z" fill="black"/>
<path d="M38.4691 42.4377H36.1554V44.7514H38.4691V42.4377Z" fill="black"/>
<path d="M40.7871 42.4377H38.4734V44.7514H40.7871V42.4377Z" fill="black"/>
<path d="M45.419 42.4377H43.1052V44.7514H45.419V42.4377Z" fill="black"/>
<path d="M47.7328 42.4377H45.4191V44.7514H47.7328V42.4377Z" fill="black"/>
<path d="M54.683 42.4377H52.3693V44.7514H54.683V42.4377Z" fill="black"/>
<path d="M56.9965 42.4377H54.6827V44.7514H56.9965V42.4377Z" fill="black"/>
<path d="M59.3148 42.4377H57.0011V44.7514H59.3148V42.4377Z" fill="black"/>
<path d="M61.6283 42.4377H59.3146V44.7514H61.6283V42.4377Z" fill="black"/>
<path d="M68.574 42.4377H66.2603V44.7514H68.574V42.4377Z" fill="black"/>
<path d="M15.3137 44.7517H13V47.0654H15.3137V44.7517Z" fill="black"/>
<path d="M15.3137 42.4377H13V44.7514H15.3137V42.4377Z" fill="black"/>
<path d="M15.3137 51.6885H13V54.0022H15.3137V51.6885Z" fill="black"/>
<path d="M22.2594 44.7517H19.9457V47.0654H22.2594V44.7517Z" fill="black"/>
<path d="M24.5733 44.7517H22.2595V47.0654H24.5733V44.7517Z" fill="black"/>
<path d="M26.8912 44.7517H24.5775V47.0654H26.8912V44.7517Z" fill="black"/>
<path d="M31.5231 44.7517H29.2094V47.0654H31.5231V44.7517Z" fill="black"/>
<path d="M38.4691 44.7517H36.1554V47.0654H38.4691V44.7517Z" fill="black"/>
<path d="M40.7871 44.7517H38.4734V47.0654H40.7871V44.7517Z" fill="black"/>
<path d="M40.7871 49.3748H38.4734V51.6885H40.7871V49.3748Z" fill="black"/>
<path d="M43.101 44.7517H40.7872V47.0654H43.101V44.7517Z" fill="black"/>
<path d="M43.101 51.6885H40.7872V54.0022H43.101V51.6885Z" fill="black"/>
<path d="M45.419 51.6885H43.1052V54.0022H45.419V51.6885Z" fill="black"/>
<path d="M47.7328 44.7517H45.4191V47.0654H47.7328V44.7517Z" fill="black"/>
<path d="M52.3646 44.7517H50.0509V47.0654H52.3646V44.7517Z" fill="black"/>
<path d="M54.683 44.7517H52.3693V47.0654H54.683V44.7517Z" fill="black"/>
<path d="M61.6283 44.7517H59.3146V47.0654H61.6283V44.7517Z" fill="black"/>
<path d="M66.2605 44.7517H63.9468V47.0654H66.2605V44.7517Z" fill="black"/>
<path d="M68.574 44.7517H66.2603V47.0654H68.574V44.7517Z" fill="black"/>
<path d="M22.2594 47.0651H19.9457V49.3788H22.2594V47.0651Z" fill="black"/>
<path d="M29.2051 47.0651H26.8914V49.3788H29.2051V47.0651Z" fill="black"/>
<path d="M31.5231 49.3788H29.2094V51.6925H31.5231V49.3788Z" fill="black"/>
<path d="M33.8369 47.0651H31.5232V49.3788H33.8369V47.0651Z" fill="black"/>
<path d="M36.1553 47.0651H33.8416V49.3788H36.1553V47.0651Z" fill="black"/>
<path d="M38.4691 47.0651H36.1554V49.3788H38.4691V47.0651Z" fill="black"/>
<path d="M47.7328 47.0651H45.4191V49.3788H47.7328V47.0651Z" fill="black"/>
<path d="M45.419 47.0651H43.1052V49.3788H45.419V47.0651Z" fill="black"/>
<path d="M50.0512 47.0651H47.7374V49.3788H50.0512V47.0651Z" fill="black"/>
<path d="M50.0512 44.7517H47.7374V47.0654H50.0512V44.7517Z" fill="black"/>
<path d="M54.683 47.0651H52.3693V49.3788H54.683V47.0651Z" fill="black"/>
<path d="M56.9965 47.0651H54.6827V49.3788H56.9965V47.0651Z" fill="black"/>
<path d="M61.6283 47.0651H59.3146V49.3788H61.6283V47.0651Z" fill="black"/>
<path d="M63.9422 47.0651H61.6284V49.3788H63.9422V47.0651Z" fill="black"/>
<path d="M68.574 47.0651H66.2603V49.3788H68.574V47.0651Z" fill="black"/>
<path d="M15.3137 49.3748H13V51.6885H15.3137V49.3748Z" fill="black"/>
<path d="M17.6276 49.3748H15.3138V51.6885H17.6276V49.3748Z" fill="black"/>
<path d="M26.8912 49.3748H24.5775V51.6885H26.8912V49.3748Z" fill="black"/>
<path d="M29.2051 49.3748H26.8914V51.6885H29.2051V49.3748Z" fill="black"/>
<path d="M45.419 49.3748H43.1052V51.6885H45.419V49.3748Z" fill="black"/>
<path d="M61.6283 49.3748H59.3146V51.6885H61.6283V49.3748Z" fill="black"/>
<path d="M66.2605 49.3748H63.9468V51.6885H66.2605V49.3748Z" fill="black"/>
<path d="M19.9456 51.6885H17.6318V54.0022H19.9456V51.6885Z" fill="black"/>
<path d="M22.2594 51.6885H19.9457V54.0022H22.2594V51.6885Z" fill="black"/>
<path d="M24.5733 49.3788H22.2595V51.6925H24.5733V49.3788Z" fill="black"/>
<path d="M26.8912 51.6885H24.5775V54.0022H26.8912V51.6885Z" fill="black"/>
<path d="M29.2051 51.6885H26.8914V54.0022H29.2051V51.6885Z" fill="black"/>
<path d="M33.8369 51.6885H31.5232V54.0022H33.8369V51.6885Z" fill="black"/>
<path d="M36.1553 51.6885H33.8416V54.0022H36.1553V51.6885Z" fill="black"/>
<path d="M38.4691 51.6885H36.1554V54.0022H38.4691V51.6885Z" fill="black"/>
<path d="M47.7328 51.6885H45.4191V54.0022H47.7328V51.6885Z" fill="black"/>
<path d="M50.0512 51.6885H47.7374V54.0022H50.0512V51.6885Z" fill="black"/>
<path d="M52.3646 51.6885H50.0509V54.0022H52.3646V51.6885Z" fill="black"/>
<path d="M54.683 51.6885H52.3693V54.0022H54.683V51.6885Z" fill="black"/>
<path d="M56.9965 51.6885H54.6827V54.0022H56.9965V51.6885Z" fill="black"/>
<path d="M59.3148 51.6885H57.0011V54.0022H59.3148V51.6885Z" fill="black"/>
<path d="M61.6283 51.6885H59.3146V54.0022H61.6283V51.6885Z" fill="black"/>
<path d="M66.2605 51.6885H63.9468V54.0022H66.2605V51.6885Z" fill="black"/>
<path d="M33.8369 54.0018H31.5232V56.3156H33.8369V54.0018Z" fill="black"/>
<path d="M40.7871 54.0018H38.4734V56.3156H40.7871V54.0018Z" fill="black"/>
<path d="M43.101 54.0018H40.7872V56.3156H43.101V54.0018Z" fill="black"/>
<path d="M50.0512 54.0018H47.7374V56.3156H50.0512V54.0018Z" fill="black"/>
<path d="M59.3148 54.0018H57.0011V56.3156H59.3148V54.0018Z" fill="black"/>
<path d="M68.574 54.0018H66.2603V56.3156H68.574V54.0018Z" fill="black"/>
<path d="M15.3137 56.3159H13V58.6297H15.3137V56.3159Z" fill="black"/>
<path d="M17.6276 56.3159H15.3138V58.6297H17.6276V56.3159Z" fill="black"/>
<path d="M19.9456 56.3159H17.6318V58.6297H19.9456V56.3159Z" fill="black"/>
<path d="M22.2594 56.3159H19.9457V58.6297H22.2594V56.3159Z" fill="black"/>
<path d="M24.5733 56.3159H22.2595V58.6297H24.5733V56.3159Z" fill="black"/>
<path d="M26.8912 56.3159H24.5775V58.6297H26.8912V56.3159Z" fill="black"/>
<path d="M29.2051 56.3159H26.8914V58.6297H29.2051V56.3159Z" fill="black"/>
<path d="M33.8369 56.3159H31.5232V58.6297H33.8369V56.3159Z" fill="black"/>
<path d="M33.8369 58.6252H31.5232V60.9389H33.8369V58.6252Z" fill="black"/>
<path d="M33.8369 63.2526H31.5232V65.5664H33.8369V63.2526Z" fill="black"/>
<path d="M36.1553 56.3159H33.8416V58.6297H36.1553V56.3159Z" fill="black"/>
<path d="M38.4691 56.3159H36.1554V58.6297H38.4691V56.3159Z" fill="black"/>
<path d="M50.0512 56.3159H47.7374V58.6297H50.0512V56.3159Z" fill="black"/>
<path d="M54.683 56.3159H52.3693V58.6297H54.683V56.3159Z" fill="black"/>
<path d="M59.3148 56.3159H57.0011V58.6297H59.3148V56.3159Z" fill="black"/>
<path d="M61.6283 56.3159H59.3146V58.6297H61.6283V56.3159Z" fill="black"/>
<path d="M63.9422 56.3159H61.6284V58.6297H63.9422V56.3159Z" fill="black"/>
<path d="M68.574 56.3159H66.2603V58.6297H68.574V56.3159Z" fill="black"/>
<path d="M15.3137 58.6252H13V60.9389H15.3137V58.6252Z" fill="black"/>
<path d="M29.2051 58.6252H26.8914V60.9389H29.2051V58.6252Z" fill="black"/>
<path d="M45.419 58.6252H43.1052V60.9389H45.419V58.6252Z" fill="black"/>
<path d="M47.7328 58.6252H45.4191V60.9389H47.7328V58.6252Z" fill="black"/>
<path d="M50.0512 58.6252H47.7374V60.9389H50.0512V58.6252Z" fill="black"/>
<path d="M47.7328 60.9389H45.4191V63.2526H47.7328V60.9389Z" fill="black"/>
<path d="M59.3148 58.6252H57.0011V60.9389H59.3148V58.6252Z" fill="black"/>
<path d="M68.574 58.6252H66.2603V60.9389H68.574V58.6252Z" fill="black"/>
<path d="M15.3137 60.9389H13V63.2526H15.3137V60.9389Z" fill="black"/>
<path d="M19.9456 60.9389H17.6318V63.2526H19.9456V60.9389Z" fill="black"/>
<path d="M22.2594 60.9389H19.9457V63.2526H22.2594V60.9389Z" fill="black"/>
<path d="M24.5733 60.9389H22.2595V63.2526H24.5733V60.9389Z" fill="black"/>
<path d="M29.2051 60.9389H26.8914V63.2526H29.2051V60.9389Z" fill="black"/>
<path d="M36.1553 60.9389H33.8416V63.2526H36.1553V60.9389Z" fill="black"/>
<path d="M36.1553 65.562H33.8416V67.8757H36.1553V65.562Z" fill="black"/>
<path d="M43.101 60.9389H40.7872V63.2526H43.101V60.9389Z" fill="black"/>
<path d="M43.101 63.2482H40.7872V65.562H43.101V63.2482Z" fill="black"/>
<path d="M43.101 58.6252H40.7872V60.9389H43.101V58.6252Z" fill="black"/>
<path d="M43.101 56.3159H40.7872V58.6297H43.101V56.3159Z" fill="black"/>
<path d="M40.7871 60.9389H38.4734V63.2526H40.7871V60.9389Z" fill="black"/>
<path d="M47.7328 54.0018H45.4191V56.3156H47.7328V54.0018Z" fill="black"/>
<path d="M52.3646 60.9389H50.0509V63.2526H52.3646V60.9389Z" fill="black"/>
<path d="M54.683 60.9389H52.3693V63.2526H54.683V60.9389Z" fill="black"/>
<path d="M56.9965 60.9389H54.6827V63.2526H56.9965V60.9389Z" fill="black"/>
<path d="M59.3148 60.9389H57.0011V63.2526H59.3148V60.9389Z" fill="black"/>
<path d="M66.2605 60.9389H63.9468V63.2526H66.2605V60.9389Z" fill="black"/>
<path d="M63.9467 58.6252H61.6329V60.9389H63.9467V58.6252Z" fill="black"/>
<path d="M68.574 60.9389H66.2603V63.2526H68.574V60.9389Z" fill="black"/>
<path d="M15.3137 63.2526H13V65.5664H15.3137V63.2526Z" fill="black"/>
<path d="M19.9456 63.2526H17.6318V65.5664H19.9456V63.2526Z" fill="black"/>
<path d="M22.2594 63.2526H19.9457V65.5664H22.2594V63.2526Z" fill="black"/>
<path d="M24.5733 63.2526H22.2595V65.5664H24.5733V63.2526Z" fill="black"/>
<path d="M29.2051 63.2526H26.8914V65.5664H29.2051V63.2526Z" fill="black"/>
<path d="M38.4691 63.2526H36.1554V65.5664H38.4691V63.2526Z" fill="black"/>
<path d="M47.7328 63.2526H45.4191V65.5664H47.7328V63.2526Z" fill="black"/>
<path d="M50.0512 63.2526H47.7374V65.5664H50.0512V63.2526Z" fill="black"/>
<path d="M50.0512 67.8757H47.7374V70.1894H50.0512V67.8757Z" fill="black"/>
<path d="M52.3646 63.2526H50.0509V65.5664H52.3646V63.2526Z" fill="black"/>
<path d="M59.3148 63.2526H57.0011V65.5664H59.3148V63.2526Z" fill="black"/>
<path d="M61.6283 63.2526H59.3146V65.5664H61.6283V63.2526Z" fill="black"/>
<path d="M63.9422 63.2526H61.6284V65.5664H63.9422V63.2526Z" fill="black"/>
<path d="M66.2605 63.2526H63.9468V65.5664H66.2605V63.2526Z" fill="black"/>
<path d="M68.574 63.2526H66.2603V65.5664H68.574V63.2526Z" fill="black"/>
<path d="M15.3137 65.562H13V67.8757H15.3137V65.562Z" fill="black"/>
<path d="M19.9456 65.562H17.6318V67.8757H19.9456V65.562Z" fill="black"/>
<path d="M22.2594 65.562H19.9457V67.8757H22.2594V65.562Z" fill="black"/>
<path d="M24.5733 65.562H22.2595V67.8757H24.5733V65.562Z" fill="black"/>
<path d="M29.2051 65.562H26.8914V67.8757H29.2051V65.562Z" fill="black"/>
<path d="M33.8369 65.562H31.5232V67.8757H33.8369V65.562Z" fill="black"/>
<path d="M40.7871 65.562H38.4734V67.8757H40.7871V65.562Z" fill="black"/>
<path d="M45.419 65.562H43.1052V67.8757H45.419V65.562Z" fill="black"/>
<path d="M52.3646 65.562H50.0509V67.8757H52.3646V65.562Z" fill="black"/>
<path d="M56.9965 65.562H54.6827V67.8757H56.9965V65.562Z" fill="black"/>
<path d="M59.3148 65.562H57.0011V67.8757H59.3148V65.562Z" fill="black"/>
<path d="M66.2605 65.562H63.9468V67.8757H66.2605V65.562Z" fill="black"/>
<path d="M68.574 65.562H66.2603V67.8757H68.574V65.562Z" fill="black"/>
<path d="M15.3137 67.8757H13V70.1894H15.3137V67.8757Z" fill="black"/>
<path d="M29.2051 67.8757H26.8914V70.1894H29.2051V67.8757Z" fill="black"/>
<path d="M36.1553 67.8757H33.8416V70.1894H36.1553V67.8757Z" fill="black"/>
<path d="M40.7871 67.8757H38.4734V70.1894H40.7871V67.8757Z" fill="black"/>
<path d="M43.101 67.8757H40.7872V70.1894H43.101V67.8757Z" fill="black"/>
<path d="M52.3646 67.8757H50.0509V70.1894H52.3646V67.8757Z" fill="black"/>
<path d="M59.3148 67.8757H57.0011V70.1894H59.3148V67.8757Z" fill="black"/>
<path d="M61.6283 67.8757H59.3146V70.1894H61.6283V67.8757Z" fill="black"/>
<path d="M66.2605 67.8757H63.9468V70.1894H66.2605V67.8757Z" fill="black"/>
<path d="M15.3137 70.1894H13V72.5031H15.3137V70.1894Z" fill="black"/>
<path d="M17.6276 70.1894H15.3138V72.5031H17.6276V70.1894Z" fill="black"/>
<path d="M19.9456 70.1894H17.6318V72.5031H19.9456V70.1894Z" fill="black"/>
<path d="M22.2594 70.1894H19.9457V72.5031H22.2594V70.1894Z" fill="black"/>
<path d="M24.5733 70.1894H22.2595V72.5031H24.5733V70.1894Z" fill="black"/>
<path d="M26.8912 70.1894H24.5775V72.5031H26.8912V70.1894Z" fill="black"/>
<path d="M29.2051 70.1894H26.8914V72.5031H29.2051V70.1894Z" fill="black"/>
<path d="M33.8369 70.1894H31.5232V72.5031H33.8369V70.1894Z" fill="black"/>
<path d="M36.1553 70.1894H33.8416V72.5031H36.1553V70.1894Z" fill="black"/>
<path d="M38.4691 70.1894H36.1554V72.5031H38.4691V70.1894Z" fill="black"/>
<path d="M47.7328 70.1894H45.4191V72.5031H47.7328V70.1894Z" fill="black"/>
<path d="M45.419 70.1894H43.1052V72.5031H45.419V70.1894Z" fill="black"/>
<path d="M50.0512 70.1894H47.7374V72.5031H50.0512V70.1894Z" fill="black"/>
<path d="M52.3646 70.1894H50.0509V72.5031H52.3646V70.1894Z" fill="black"/>
<path d="M56.9965 70.1894H54.6827V72.5031H56.9965V70.1894Z" fill="black"/>
<path d="M68.574 70.1894H66.2603V72.5031H68.574V70.1894Z" fill="black"/>
<path d="M63.9467 70.1894H61.6329V72.5031H63.9467V70.1894Z" fill="black"/>
<path d="M61.6283 70.1894H59.3146V72.5031H61.6283V70.1894Z" fill="black"/>
</svg>
